<?xml version="1.0" encoding="UTF-8" standalone="no"?>
<!-- Created with Inkscape (http://www.inkscape.org/) -->

<svg
   xmlns:dc="http://purl.org/dc/elements/1.1/"
   xmlns:cc="http://creativecommons.org/ns#"
   xmlns:rdf="http://www.w3.org/1999/02/22-rdf-syntax-ns#"
   xmlns:svg="http://www.w3.org/2000/svg"
   xmlns="http://www.w3.org/2000/svg"
   xmlns:sodipodi="http://sodipodi.sourceforge.net/DTD/sodipodi-0.dtd"
   xmlns:inkscape="http://www.inkscape.org/namespaces/inkscape"
   width="1060.7999"
   height="811.19995"
   viewBox="0 0 1060.8 811.19998"
   id="svg2"
   version="1.1"
   inkscape:version="0.91 r13725"
   sodipodi:docname="calg.svg">
  <defs
     id="defs4" />
  <sodipodi:namedview
     id="base"
     pagecolor="#ffffff"
     bordercolor="#666666"
     borderopacity="1.0"
     inkscape:pageopacity="0.0"
     inkscape:pageshadow="2"
     inkscape:zoom="0.35355339"
     inkscape:cx="539.02908"
     inkscape:cy="395.67296"
     inkscape:document-units="px"
     inkscape:current-layer="layer1"
     showgrid="false"
     units="px"
     fit-margin-top="0"
     fit-margin-left="0"
     fit-margin-right="0"
     fit-margin-bottom="0"
     inkscape:window-width="1391"
     inkscape:window-height="856"
     inkscape:window-x="12"
     inkscape:window-y="0"
     inkscape:window-maximized="0" />
  <metadata
     id="metadata7">
    <rdf:RDF>
      <cc:Work
         rdf:about="">
        <dc:format>image/svg+xml</dc:format>
        <dc:type
           rdf:resource="http://purl.org/dc/dcmitype/StillImage" />
        <dc:title />
      </cc:Work>
    </rdf:RDF>
  </metadata>
  <g
     inkscape:label="Layer 1"
     inkscape:groupmode="layer"
     id="layer1"
     transform="translate(9.320713,-0.84358913)">
    <path
       style="fill:none;fill-rule:evenodd;stroke:#000000;stroke-width:4.5;stroke-linecap:butt;stroke-linejoin:miter;stroke-miterlimit:4;stroke-dasharray:none;stroke-opacity:1"
       d="M 30.039611,17.618459 1033.023,17.870998"
       id="path4201"
       inkscape:connector-curvature="0"
       sodipodi:nodetypes="cc" />
    <path
       sodipodi:nodetypes="cc"
       inkscape:connector-curvature="0"
       id="path4203"
       d="M 29.787073,603.38067 1032.7705,603.63321"
       style="fill:none;fill-rule:evenodd;stroke:#000000;stroke-width:4.5;stroke-linecap:butt;stroke-linejoin:miter;stroke-miterlimit:4;stroke-dasharray:none;stroke-opacity:1" />
    <path
       style="fill:none;fill-rule:evenodd;stroke:#000000;stroke-width:4.5;stroke-linecap:butt;stroke-linejoin:miter;stroke-miterlimit:4;stroke-dasharray:none;stroke-opacity:1"
       d="M 28.524382,755.66116 1031.5078,755.9137"
       id="path4205"
       inkscape:connector-curvature="0"
       sodipodi:nodetypes="cc" />
    <path
       sodipodi:nodetypes="cc"
       inkscape:connector-curvature="0"
       id="path4207"
       d="M 28.524382,765.38388 1031.5078,765.63642"
       style="fill:none;fill-rule:evenodd;stroke:#000000;stroke-width:4.5;stroke-linecap:butt;stroke-linejoin:miter;stroke-miterlimit:4;stroke-dasharray:none;stroke-opacity:1" />
    <path
       style="font-style:normal;font-variant:normal;font-weight:bold;font-stretch:normal;font-size:medium;line-height:125%;font-family:Helvetica;-inkscape-font-specification:'Helvetica, Bold';text-align:start;letter-spacing:0px;word-spacing:0px;writing-mode:lr-tb;text-anchor:start;opacity:1;fill:#90a4fb;fill-opacity:1;stroke:none;stroke-width:1px;stroke-linecap:butt;stroke-linejoin:miter;stroke-opacity:1"
       sodipodi:nodetypes="zzccczccczz"
       inkscape:connector-curvature="0"
       id="path4214"
       d="M 302.15437,313.87729 C 303.17568,165.8874 404.55425,68.93169 529.06887,67.567276 653.58347,66.202864 751.13452,132.02521 760.13274,250.65135 L 618.7122,252.07993 C 618.33057,207.84109 578.53579,181.69208 546.07227,181.60878 468.10514,182.53118 452.34138,251.25752 450.99357,311.83571 449.64575,372.4139 486.79031,436.39742 541.41778,436.86223 590.29209,438.29691 617.86859,407.47257 619.42648,366.39428 L 760.52476,366.39428 C 762.75267,459.84586 678.33327,550.73093 542.08558,551.10735 405.8379,551.48377 301.13306,461.86718 302.15437,313.87729 Z" />
    <g
       style="font-style:normal;font-variant:normal;font-weight:normal;font-stretch:normal;font-size:150.00001526px;line-height:125%;font-family:'Novarese Bk BT';-inkscape-font-specification:'Novarese Bk BT, Normal';text-align:start;letter-spacing:0px;word-spacing:0px;writing-mode:lr-tb;text-anchor:start;fill:#000000;fill-opacity:1;stroke:none;stroke-width:1px;stroke-linecap:butt;stroke-linejoin:miter;stroke-opacity:1"
       id="text4156">
      <path
         d="M 140.00885,640.17901 123.0899,683.24542 156.70807,683.24542 140.00885,640.17901 Z M 127.19146,629.26592 Q 129.60846,629.77862 132.39166,630.07158 135.2481,630.29131 138.69049,630.29131 141.91314,630.29131 143.59771,630.14483 145.28229,629.99834 146.74713,629.70537 147.55279,633.00127 148.4317,636.0042 149.38385,638.93389 150.55572,641.86358 L 178.75397,714.73956 Q 180.65827,719.72003 183.00202,722.21027 185.41901,724.62726 188.78815,725.06671 L 188.78815,727.63019 Q 185.0528,727.04425 182.04987,726.75128 179.04694,726.45831 176.33698,726.45831 173.2608,726.45831 170.03815,726.75128 166.81549,727.04425 163.44635,727.63019 L 163.44635,725.13995 Q 167.03522,724.84698 168.64655,723.67511 170.33112,722.42999 170.33112,720.013 170.33112,719.13409 169.89166,717.66925 169.52545,716.13116 168.86627,714.30011 L 158.90533,689.83722 120.67291,689.83722 112.10357,712.32257 Q 111.00494,715.10577 110.49224,717.01007 110.05279,718.91437 110.05279,720.15948 110.05279,722.35675 111.8106,723.60187 113.64166,724.77374 117.37701,725.13995 L 117.37701,727.63019 Q 114.15435,727.04425 111.07818,726.75128 108.07525,726.45831 105.2188,726.45831 102.4356,726.45831 99.359429,726.75128 96.356499,727.04425 92.914116,727.63019 L 92.914116,725.06671 Q 96.869194,724.48077 99.72564,721.18487 102.58209,717.81573 105.80474,709.46612 L 131.14654,645.30596 Q 132.39166,642.15655 132.90435,640.17901 133.41705,638.12823 133.41705,636.59014 133.41705,634.39287 132.02545,633.36748 130.63385,632.34209 127.11822,632.04912 L 127.19146,629.26592 Z"
         style=""
         id="path4161" />
      <path
         d="M 192.15729,629.4124 Q 195.23346,629.9251 198.38287,630.21807 201.60553,630.4378 205.04791,630.4378 208.56354,630.4378 211.7862,630.21807 215.00885,629.9251 218.08503,629.4124 L 218.08503,631.75615 Q 213.25104,632.78155 211.56647,634.68584 209.8819,636.5169 209.8819,643.47491 L 209.8819,720.59894 234.34479,720.59894 Q 250.16511,720.59894 253.9737,716.79034 257.78229,712.98175 259.54011,700.67706 L 262.03034,700.67706 Q 260.41901,711.88312 259.90632,717.01007 259.39362,722.06378 259.39362,726.01886 L 259.39362,727.19073 192.15729,727.19073 192.15729,724.77374 Q 196.99127,723.82159 198.67584,721.99054 200.43366,720.08624 200.43366,713.05499 L 200.43366,643.47491 Q 200.43366,636.5169 198.67584,634.68584 196.99127,632.78155 192.15729,631.75615 L 192.15729,629.4124 Z"
         style=""
         id="path4163" />
      <path
         d="M 342.59676,633.88018 342.59676,635.71123 Q 342.59676,639.44659 342.88973,644.28057 343.25594,649.04131 343.98836,656.36553 L 341.57137,656.36553 Q 340.03328,645.81866 332.85554,640.25225 325.75105,634.6126 313.81257,634.6126 297.1866,634.6126 286.20027,646.25811 275.28718,657.83038 275.28718,676.06768 275.28718,695.1839 286.27351,708.07452 297.33308,720.89191 313.08015,720.89191 323.48054,720.89191 330.29207,715.61847 337.10359,710.27179 337.10359,701.99542 L 337.10359,691.00909 Q 337.10359,688.0794 334.61336,686.39483 332.12312,684.71026 326.62996,683.83136 L 326.55672,681.48761 Q 329.92586,682.0003 333.295,682.29327 336.73738,682.513 340.54598,682.513 344.42781,682.513 347.94344,682.29327 351.45906,682.0003 354.75496,681.48761 L 354.75496,683.83136 Q 349.92098,684.7835 348.23641,686.6878 346.55184,688.51886 346.55184,695.55011 L 346.55184,727.19073 342.52351,727.19073 Q 342.37703,726.82452 342.1573,726.16534 339.66707,718.1087 338.12898,715.47198 331.75691,722.64972 324.87215,725.87238 317.98738,729.02179 308.75886,729.02179 290.81452,729.02179 278.43659,714.88605 266.13191,700.7503 266.13191,680.096 266.13191,657.02471 280.7071,642.37627 295.35554,627.72783 318.64656,627.72783 325.82429,627.72783 331.68367,629.26592 337.54305,630.73076 342.59676,633.88018 Z"
         style=""
         id="path4165" />
      <path
         d="M 412.25009,634.31963 Q 396.35653,634.31963 386.24911,645.23272 376.21493,656.07256 376.21493,673.35772 376.21493,693.71905 387.64071,707.8548 399.06649,721.9173 415.54599,721.9173 431.3663,721.9173 441.40048,711.00421 451.50791,700.09112 451.50791,682.65948 451.50791,662.59112 439.93564,648.45538 428.43661,634.31963 412.25009,634.31963 Z M 366.76669,676.06768 Q 366.76669,655.04717 380.02352,641.42412 393.3536,627.72783 413.86142,627.72783 434.07626,627.72783 447.55283,642.74248 461.10263,657.68389 461.10263,680.38897 461.10263,701.33624 447.69931,715.10577 434.36923,728.87531 414.0079,728.87531 393.79306,728.87531 380.24325,713.86066 366.76669,698.77276 366.76669,676.06768 Z"
         style=""
         id="path4167" />
      <path
         d="M 473.70028,629.70537 513.47079,629.70537 Q 527.09384,629.70537 534.93075,636.07744 542.84091,642.44952 542.84091,653.50909 542.84091,664.56866 533.6124,671.89288 524.45712,679.14385 509.58896,679.80303 521.38095,692.7669 532.36728,706.68292 543.35361,720.59894 543.42685,720.74542 545.47763,723.01593 547.60165,723.96808 549.72568,724.84698 553.31455,725.06671 L 553.31455,727.4837 Q 550.16513,727.26398 547.6749,727.19073 545.2579,727.04425 543.42685,727.04425 541.96201,727.04425 540.27744,727.11749 538.66611,727.19073 536.3956,727.33722 518.89071,703.16729 499.26181,682.07354 494.72079,677.16632 494.72079,676.65362 494.72079,675.9212 495.52645,675.62823 496.40536,675.26202 499.04208,675.26202 L 501.01962,675.26202 Q 516.254,675.26202 524.53036,669.8421 532.80673,664.34893 532.80673,654.46124 532.80673,644.57354 525.55575,640.47198 518.30478,636.29717 499.48153,636.29717 L 491.42489,636.29717 491.42489,713.56769 Q 491.42489,720.5257 493.10946,722.42999 494.79403,724.26105 499.62802,725.2132 L 499.62802,727.63019 Q 496.69833,727.11749 493.47567,726.89777 490.25302,726.6048 486.59091,726.6048 483.00204,726.6048 479.77938,726.89777 476.62997,727.11749 473.70028,727.63019 L 473.70028,725.2132 Q 478.53426,724.26105 480.21884,722.42999 481.97665,720.5257 481.97665,713.56769 L 481.97665,643.76787 Q 481.97665,636.80987 480.21884,634.97881 478.53426,633.07451 473.70028,632.12237 L 473.70028,629.70537 Z"
         style=""
         id="path4169" />
      <path
         d="M 557.19637,629.4124 Q 560.27255,629.9251 563.42196,630.21807 566.64462,630.4378 570.087,630.4378 573.60263,630.4378 576.82528,630.21807 580.04794,629.9251 583.12411,629.4124 L 583.12411,631.75615 Q 578.29013,632.78155 576.60556,634.68584 574.92098,636.5169 574.92098,643.47491 L 574.92098,713.56769 Q 574.92098,720.5257 576.60556,722.42999 578.29013,724.26105 583.12411,725.2132 L 583.12411,727.63019 Q 580.19442,727.11749 576.97177,726.89777 573.74911,726.6048 570.087,726.6048 566.49813,726.6048 563.27548,726.89777 560.12606,727.11749 557.19637,727.63019 L 557.19637,725.2132 Q 562.03036,724.26105 563.71493,722.42999 565.47274,720.5257 565.47274,713.56769 L 565.47274,643.47491 Q 565.47274,636.5169 563.71493,634.68584 562.03036,632.78155 557.19637,631.75615 L 557.19637,629.4124 Z"
         style=""
         id="path4171" />
      <path
         d="M 593.59774,629.70537 660.54111,629.70537 660.54111,633.29424 Q 660.54111,638.34795 661.0538,644.28057 661.5665,650.21319 662.59189,657.02471 L 660.24814,657.02471 Q 658.78329,644.93975 654.02255,640.61846 649.33505,636.29717 637.1036,636.29717 L 631.68368,636.29717 631.68368,713.56769 Q 631.68368,720.37921 633.44149,722.35675 635.19931,724.26105 640.10653,725.2132 L 640.10653,727.63019 Q 637.17685,727.11749 633.95419,726.89777 630.73153,726.6048 627.06942,726.6048 623.40731,726.6048 620.18466,726.89777 616.962,727.11749 614.03231,727.63019 L 614.03231,725.2132 Q 618.93954,724.26105 620.69735,722.35675 622.45517,720.37921 622.45517,713.56769 L 622.45517,636.29717 617.03524,636.29717 Q 604.8038,636.29717 600.04305,640.61846 595.35555,644.93975 593.89071,657.02471 L 591.54696,657.02471 Q 592.57235,650.21319 593.08505,644.20733 593.59774,638.12823 593.59774,632.85479 L 593.59774,629.70537 Z"
         style=""
         id="path4173" />
      <path
         d="M 735.83411,629.26592 Q 738.91028,629.77862 742.05969,630.07158 745.28235,630.29131 748.72473,630.29131 752.16712,630.29131 755.38977,630.07158 758.68567,629.77862 761.76184,629.26592 L 761.76184,631.60967 Q 756.92786,632.63506 755.17005,634.53936 753.48548,636.37041 753.48548,643.32842 L 753.48548,713.56769 Q 753.48548,720.45245 755.17005,722.35675 756.92786,724.1878 761.76184,725.2132 L 761.76184,727.63019 Q 758.24622,727.04425 755.02356,726.75128 751.8009,726.45831 748.72473,726.45831 745.7218,726.45831 742.49915,726.75128 739.34973,727.04425 735.83411,727.63019 L 735.83411,725.2132 Q 740.66809,724.1878 742.35266,722.35675 744.03723,720.45245 744.03723,713.56769 L 744.03723,678.11846 688.59289,678.11846 688.59289,713.56769 Q 688.59289,720.5257 690.27746,722.42999 691.96203,724.26105 696.79602,725.2132 L 696.79602,727.63019 Q 693.86633,727.11749 690.64367,726.89777 687.42102,726.6048 683.75891,726.6048 680.17004,726.6048 676.94738,726.89777 673.79797,727.11749 670.86828,727.63019 L 670.86828,725.2132 Q 675.70226,724.26105 677.38683,722.42999 679.14465,720.5257 679.14465,713.56769 L 679.14465,643.47491 Q 679.14465,636.5169 677.38683,634.6126 675.70226,632.7083 670.86828,631.60967 L 670.86828,629.26592 Q 673.505,629.77862 676.50793,630.07158 679.51086,630.29131 683.75891,630.29131 688.08019,630.29131 691.08312,630.07158 694.1593,629.77862 696.79602,629.26592 L 696.79602,631.60967 Q 691.96203,632.7083 690.27746,634.6126 688.59289,636.5169 688.59289,643.47491 L 688.59289,671.52667 744.03723,671.52667 744.03723,643.32842 Q 744.03723,636.37041 742.35266,634.53936 740.66809,632.63506 735.83411,631.60967 L 735.83411,629.26592 Z"
         style=""
         id="path4175" />
      <path
         d="M 776.41027,629.26592 Q 779.48644,629.63213 782.12316,629.85186 784.75988,629.99834 787.17687,629.99834 789.08117,629.99834 790.61926,629.9251 792.23059,629.85186 793.76867,629.70537 L 829.95032,713.05499 861.15149,629.70537 Q 863.34876,629.9251 865.10657,630.07158 866.86438,630.14483 868.32923,630.14483 870.59973,630.14483 876.60559,629.48565 877.85071,629.33916 878.50989,629.26592 L 878.50989,631.60967 Q 874.04212,632.34209 872.50403,634.17315 871.03919,635.93096 871.03919,640.32549 871.03919,642.52276 871.11243,644.35381 871.18567,646.11163 871.33216,648.01592 L 874.77454,702.72784 Q 874.84778,704.11944 875.06751,706.8294 876.0929,724.11456 884.51575,725.2132 L 884.51575,727.63019 Q 881.58606,727.11749 878.21692,726.89777 874.92102,726.6048 871.03919,726.6048 867.15735,726.6048 863.78821,726.89777 860.49231,727.11749 857.56262,727.63019 L 857.56262,725.2132 Q 862.25012,724.33429 864.00794,722.50323 865.76575,720.59894 865.76575,716.86359 865.76575,714.8128 865.61926,711.51691 865.54602,708.22101 865.3263,704.48565 L 862.0304,643.32842 830.82922,727.19073 825.70227,727.19073 790.47277,643.18194 787.76281,706.02374 Q 787.61633,709.09991 787.54309,711.80987 787.46984,714.51984 787.46984,716.7171 787.46984,720.37921 789.3009,722.28351 791.13195,724.1878 795.74621,725.2132 L 795.74621,727.63019 Q 792.23059,727.11749 789.37414,726.89777 786.59094,726.6048 784.02746,726.6048 781.46398,726.6048 778.46105,726.89777 775.53137,727.11749 772.38195,727.63019 L 772.30871,725.2132 Q 781.02453,724.1878 781.61047,706.24347 781.68371,702.43487 781.75695,700.23761 L 783.88098,651.75127 Q 783.95422,650.94561 783.95422,650.0667 784.02746,649.11456 784.02746,647.72295 784.02746,637.10284 782.41613,634.6126 780.8048,632.04912 776.41027,631.60967 L 776.41027,629.26592 Z"
         style=""
         id="path4177" />
      <path
         d="M 957.24524,631.97588 957.24524,636.73662 Q 957.24524,640.6917 957.46497,644.86651 957.75793,649.04131 958.27063,653.3626 L 955.92688,653.3626 Q 954.60852,643.40166 948.82239,638.64092 943.1095,633.88018 932.34289,633.88018 918.93957,633.88018 910.80969,639.3001 902.6798,644.72002 902.6798,653.50909 902.6798,660.24737 907.51379,664.12921 912.42102,667.9378 925.01867,670.64776 927.43567,671.16046 931.90344,672.03936 948.30969,675.18878 954.09582,679.2171 959.00305,682.58624 961.3468,687.12725 963.69055,691.66827 963.69055,697.67413 963.69055,711.59015 952.63098,720.30597 941.57141,729.02179 923.70031,729.02179 916.00988,729.02179 908.53918,727.19073 901.14172,725.28644 894.84289,721.77081 894.84289,719.64679 894.98937,717.08331 894.98937,716.42413 894.98937,716.20441 894.98937,711.07745 894.6964,706.31671 894.47668,701.55597 893.96398,697.08819 L 896.52746,697.01495 Q 897.9923,710.49151 904.5841,716.86359 911.24914,723.16241 923.8468,723.16241 937.10364,723.16241 945.45325,716.57062 953.80286,709.97882 953.80286,699.72491 953.80286,692.03448 948.96887,688.0794 944.13489,684.12432 926.84973,680.68194 908.39269,677.09307 901.06848,671.16046 893.8175,665.22784 893.8175,654.60772 893.8175,642.52276 904.07141,635.19854 914.32531,627.87432 931.61047,627.87432 937.61633,627.87432 943.9884,628.89971 950.43371,629.9251 957.24524,631.97588 Z"
         style=""
         id="path4179" />
    </g>
  </g>
</svg>
