<?xml version="1.0" encoding="UTF-8" standalone="no"?>
<!-- Created with Inkscape (http://www.inkscape.org/) -->

<svg
   xmlns:dc="http://purl.org/dc/elements/1.1/"
   xmlns:cc="http://creativecommons.org/ns#"
   xmlns:rdf="http://www.w3.org/1999/02/22-rdf-syntax-ns#"
   xmlns:svg="http://www.w3.org/2000/svg"
   xmlns="http://www.w3.org/2000/svg"
   xmlns:sodipodi="http://sodipodi.sourceforge.net/DTD/sodipodi-0.dtd"
   xmlns:inkscape="http://www.inkscape.org/namespaces/inkscape"
   width="1060.7999"
   height="811.19995"
   viewBox="0 0 1060.8 811.19998"
   id="svg2"
   version="1.1"
   inkscape:version="0.91 r13725"
   sodipodi:docname="calg.svg">
  <defs
     id="defs4" />
  <sodipodi:namedview
     id="base"
     pagecolor="#ffffff"
     bordercolor="#666666"
     borderopacity="1.0"
     inkscape:pageopacity="0.0"
     inkscape:pageshadow="2"
     inkscape:zoom="0.35355339"
     inkscape:cx="565.16617"
     inkscape:cy="282.53587"
     inkscape:document-units="px"
     inkscape:current-layer="layer1"
     showgrid="false"
     units="px"
     fit-margin-top="0"
     fit-margin-left="0"
     fit-margin-right="0"
     fit-margin-bottom="0"
     inkscape:window-width="1391"
     inkscape:window-height="856"
     inkscape:window-x="0"
     inkscape:window-y="0"
     inkscape:window-maximized="1" />
  <metadata
     id="metadata7">
    <rdf:RDF>
      <cc:Work
         rdf:about="">
        <dc:format>image/svg+xml</dc:format>
        <dc:type
           rdf:resource="http://purl.org/dc/dcmitype/StillImage" />
        <dc:title></dc:title>
      </cc:Work>
    </rdf:RDF>
  </metadata>
  <g
     inkscape:label="Layer 1"
     inkscape:groupmode="layer"
     id="layer1"
     transform="translate(9.320713,-0.84358913)">
    <path
       style="fill:none;fill-rule:evenodd;stroke:#000000;stroke-width:4.5;stroke-linecap:butt;stroke-linejoin:miter;stroke-miterlimit:4;stroke-dasharray:none;stroke-opacity:1"
       d="M 30.039611,17.618459 1033.023,17.870998"
       id="path4201"
       inkscape:connector-curvature="0"
       sodipodi:nodetypes="cc" />
    <path
       sodipodi:nodetypes="cc"
       inkscape:connector-curvature="0"
       id="path4203"
       d="M 29.787073,603.38067 1032.7705,603.63321"
       style="fill:none;fill-rule:evenodd;stroke:#000000;stroke-width:4.5;stroke-linecap:butt;stroke-linejoin:miter;stroke-miterlimit:4;stroke-dasharray:none;stroke-opacity:1" />
    <path
       style="fill:none;fill-rule:evenodd;stroke:#000000;stroke-width:4.5;stroke-linecap:butt;stroke-linejoin:miter;stroke-miterlimit:4;stroke-dasharray:none;stroke-opacity:1"
       d="M 28.524382,755.66116 1031.5078,755.9137"
       id="path4205"
       inkscape:connector-curvature="0"
       sodipodi:nodetypes="cc" />
    <path
       sodipodi:nodetypes="cc"
       inkscape:connector-curvature="0"
       id="path4207"
       d="M 28.524382,765.38388 1031.5078,765.63642"
       style="fill:none;fill-rule:evenodd;stroke:#000000;stroke-width:4.5;stroke-linecap:butt;stroke-linejoin:miter;stroke-miterlimit:4;stroke-dasharray:none;stroke-opacity:1" />
    <path
       inkscape:connector-curvature="0"
       id="path4283"
       style="font-style:normal;font-variant:normal;font-weight:normal;font-stretch:normal;font-size:125px;line-height:125%;font-family:Times;-inkscape-font-specification:'Times, Normal';text-align:start;letter-spacing:0px;word-spacing:0px;writing-mode:lr-tb;text-anchor:start;fill:#000000;fill-opacity:1;stroke:none;stroke-width:1px;stroke-linecap:butt;stroke-linejoin:miter;stroke-opacity:1"
       d="M 131.05837,690.20502 116.59304,655.78119 102.31081,690.20502 131.05837,690.20502 Z M 77.103296,722.30951 77.103296,720.05121 Q 81.925076,719.50189 84.305446,716.3891 86.746856,713.27631 92.606222,699.48236 L 118.66824,638.14203 121.10964,638.14203 152.23757,709.00385 Q 155.35036,716.08392 157.18142,717.79291 159.07351,719.44086 163.46804,720.05121 L 163.46804,722.30951 131.66872,722.30951 131.66872,720.05121 Q 137.16189,719.56293 138.7488,718.89154 140.33572,718.15912 140.33572,715.41254 140.33572,714.49701 139.72536,712.17767 139.11501,709.85834 138.01638,707.29486 L 132.82839,695.27093 100.11355,695.27093 Q 95.230742,707.539 94.254172,710.28558 93.338652,712.97113 93.338652,714.55804 93.338652,717.73187 95.902122,718.95258 97.489042,719.685 101.88357,720.05121 L 101.88357,722.30951 77.103296,722.30951 Z M 119.88894,638.14203 119.88894,638.14203 Z" />
    <path
       inkscape:connector-curvature="0"
       id="path4285"
       style="font-style:normal;font-variant:normal;font-weight:normal;font-stretch:normal;font-size:125px;line-height:125%;font-family:Times;-inkscape-font-specification:'Times, Normal';text-align:start;letter-spacing:0px;word-spacing:0px;writing-mode:lr-tb;text-anchor:start;fill:#000000;fill-opacity:1;stroke:none;stroke-width:1px;stroke-linecap:butt;stroke-linejoin:miter;stroke-opacity:1"
       d="M 174.86523,720.02889 Q 181.7622,719.29647 183.77636,717.58748 185.85156,715.81746 185.85156,708.73738 L 185.85156,653.13436 Q 185.85156,646.48153 183.8374,644.46736 181.82324,642.39217 174.86523,641.90389 L 174.86523,639.58455 210.20458,639.58455 210.20458,641.90389 Q 203.30761,642.2701 200.92724,644.16219 198.60791,646.05428 198.60791,652.27986 L 198.60791,712.33846 Q 198.60791,714.41365 199.27929,715.63436 200.01171,716.79403 202.39208,717.0992 203.79589,717.28231 205.32177,717.34334 206.90869,717.40438 211.18115,717.40438 227.84375,717.40438 233.70312,714.65779 239.5625,711.91121 245.05566,700.61971 L 248.22949,700.61971 242.12597,722.28719 174.86523,722.28719 174.86523,720.02889 Z" />
    <path
       inkscape:connector-curvature="0"
       id="path4287"
       style="font-style:normal;font-variant:normal;font-weight:normal;font-stretch:normal;font-size:125px;line-height:125%;font-family:Times;-inkscape-font-specification:'Times, Normal';text-align:start;letter-spacing:0px;word-spacing:0px;writing-mode:lr-tb;text-anchor:start;fill:#000000;fill-opacity:1;stroke:none;stroke-width:1px;stroke-linecap:butt;stroke-linejoin:miter;stroke-opacity:1"
       d="M 298.28493,639.5706 Q 305.54812,639.5706 312.56716,641.58476 319.5862,643.59892 320.6238,643.59892 323.30935,643.59892 324.40798,642.56132 325.56765,641.52372 326.36111,639.5706 L 329.10769,639.5706 330.08425,665.87675 327.2156,665.87675 Q 323.37038,656.78251 319.28103,652.32695 311.89577,644.51445 300.05495,644.51445 288.03103,644.51445 278.87576,653.66972 269.78152,662.76396 269.78152,683.69902 269.78152,700.97197 278.87576,710.67656 287.96999,720.38115 301.33669,720.38115 303.59499,720.38115 306.64675,719.9539 309.69851,719.52665 312.44509,718.61113 316.90066,717.14628 317.99929,716.10868 319.09792,715.01005 319.09792,712.93486 L 319.09792,692.97636 Q 319.09792,685.77421 317.02273,684.00419 315.00857,682.23417 308.1116,681.80693 L 308.1116,679.48759 339.97195,679.48759 339.97195,681.80693 Q 335.33327,682.1121 333.8074,683.33281 331.24392,685.28593 331.24392,691.38945 L 331.24392,715.98661 Q 331.24392,718.18388 320.4407,721.84599 309.69851,725.5081 299.74978,725.5081 281.43923,725.5081 268.86599,714.82695 255.01101,703.04716 255.01101,683.21074 255.01101,665.75468 266.05837,653.30351 278.20437,639.5706 298.28493,639.5706 Z M 296.27077,639.5706 296.27077,639.5706 Z" />
    <path
       inkscape:connector-curvature="0"
       id="path4289"
       style="font-style:normal;font-variant:normal;font-weight:normal;font-stretch:normal;font-size:125px;line-height:125%;font-family:Times;-inkscape-font-specification:'Times, Normal';text-align:start;letter-spacing:0px;word-spacing:0px;writing-mode:lr-tb;text-anchor:start;fill:#000000;fill-opacity:1;stroke:none;stroke-width:1px;stroke-linecap:butt;stroke-linejoin:miter;stroke-opacity:1"
       d="M 369.98562,681.66728 Q 369.98562,701.38163 377.73708,710.84208 385.48855,720.2415 396.78005,720.2415 407.82742,720.2415 415.63992,711.08622 423.51345,701.86992 423.51345,681.66728 423.51345,661.2205 415.57888,652.12626 407.64431,643.03202 396.78005,643.03202 385.54958,643.03202 377.73708,652.49247 369.98562,661.89189 369.98562,681.66728 Z M 355.82546,681.66728 Q 355.82546,661.64775 368.3987,649.56279 379.93435,638.51542 396.78005,638.51542 413.68679,638.51542 425.22243,649.62382 437.73464,661.64775 437.73464,681.66728 437.73464,701.99199 424.79519,714.01591 413.19851,724.7581 396.78005,724.7581 379.20193,724.7581 367.60525,712.85624 355.82546,700.71025 355.82546,681.66728 Z M 396.78005,638.51542 396.78005,638.51542 Z" />
    <path
       inkscape:connector-curvature="0"
       id="path4291"
       style="font-style:normal;font-variant:normal;font-weight:normal;font-stretch:normal;font-size:125px;line-height:125%;font-family:Times;-inkscape-font-specification:'Times, Normal';text-align:start;letter-spacing:0px;word-spacing:0px;writing-mode:lr-tb;text-anchor:start;fill:#000000;fill-opacity:1;stroke:none;stroke-width:1px;stroke-linecap:butt;stroke-linejoin:miter;stroke-opacity:1"
       d="M 477.99581,679.52386 Q 491.48458,679.03558 497.28292,676.71625 507.23165,672.62689 507.23165,661.33539 507.23165,650.47113 498.32051,646.50385 493.55977,644.36761 485.68624,644.36761 480.37618,644.36761 479.15547,645.16107 477.99581,645.89349 477.99581,648.70111 L 477.99581,679.52386 Z M 454.55831,720.05121 Q 461.76046,719.37982 463.53047,717.24359 465.30049,715.10736 465.30049,707.29486 L 465.30049,653.15668 Q 465.30049,646.56488 463.28633,644.55072 461.33321,642.47552 454.55831,641.92621 L 454.55831,639.60687 489.16524,639.60687 Q 499.96846,639.60687 507.17061,642.35345 520.84249,647.54144 520.84249,661.45746 520.84249,670.79584 514.73897,675.80072 508.69649,680.8056 498.25948,682.39252 L 524.01631,714.06976 Q 526.39669,716.99945 528.77706,718.34222 531.15743,719.685 534.88057,720.05121 L 534.88057,722.30951 514.73897,722.30951 484.95381,683.85736 477.99581,684.16254 477.99581,708.7597 Q 477.99581,715.71771 480.071,717.6098 482.20723,719.44086 489.28731,720.05121 L 489.28731,722.30951 454.55831,722.30951 454.55831,720.05121 Z" />
    <path
       inkscape:connector-curvature="0"
       id="path4293"
       style="font-style:normal;font-variant:normal;font-weight:normal;font-stretch:normal;font-size:125px;line-height:125%;font-family:Times;-inkscape-font-specification:'Times, Normal';text-align:start;letter-spacing:0px;word-spacing:0px;writing-mode:lr-tb;text-anchor:start;fill:#000000;fill-opacity:1;stroke:none;stroke-width:1px;stroke-linecap:butt;stroke-linejoin:miter;stroke-opacity:1"
       d="M 545.80761,720.05392 Q 553.43701,719.5046 555.69531,717.79562 557.95361,716.0256 557.95361,708.76241 L 557.95361,653.15939 Q 557.95361,646.26241 555.69531,644.30929 553.43701,642.29513 545.80761,641.92892 L 545.80761,639.60958 582.79492,639.60958 582.79492,641.92892 Q 575.16552,642.29513 572.90722,644.30929 570.64892,646.26241 570.64892,653.15939 L 570.64892,708.76241 Q 570.64892,716.0256 572.90722,717.79562 575.16552,719.5046 582.79492,720.05392 L 582.79492,722.31222 545.80761,722.31222 545.80761,720.05392 Z M 564.30126,639.60958 564.30126,639.60958 Z" />
    <path
       inkscape:connector-curvature="0"
       id="path4295"
       style="font-style:normal;font-variant:normal;font-weight:normal;font-stretch:normal;font-size:125px;line-height:125%;font-family:Times;-inkscape-font-specification:'Times, Normal';text-align:start;letter-spacing:0px;word-spacing:0px;writing-mode:lr-tb;text-anchor:start;fill:#000000;fill-opacity:1;stroke:none;stroke-width:1px;stroke-linecap:butt;stroke-linejoin:miter;stroke-opacity:1"
       d="M 601.55434,639.59109 672.17201,639.59109 672.8434,660.83133 669.85268,660.83133 Q 667.65541,650.82156 664.23744,647.83084 660.88051,644.77908 650.01625,644.77908 L 643.05824,644.77908 643.05824,708.74392 Q 643.05824,716.00711 645.31654,717.77713 647.57484,719.48611 655.20424,720.03543 L 655.20424,722.29373 618.76625,722.29373 618.76625,720.03543 Q 626.70082,719.42508 628.65394,717.41092 630.60707,715.39676 630.60707,707.27908 L 630.60707,644.77908 623.64906,644.77908 Q 613.27309,644.77908 609.48891,647.7698 605.76576,650.76053 603.87367,660.83133 L 600.82191,660.83133 601.55434,639.59109 Z" />
    <path
       inkscape:connector-curvature="0"
       id="path4297"
       style="font-style:normal;font-variant:normal;font-weight:normal;font-stretch:normal;font-size:125px;line-height:125%;font-family:Times;-inkscape-font-specification:'Times, Normal';text-align:start;letter-spacing:0px;word-spacing:0px;writing-mode:lr-tb;text-anchor:start;fill:#000000;fill-opacity:1;stroke:none;stroke-width:1px;stroke-linecap:butt;stroke-linejoin:miter;stroke-opacity:1"
       d="M 692.89125,720.04347 Q 700.21547,719.25001 702.04653,717.35792 703.87758,715.4048 703.87758,707.28712 L 703.87758,653.14894 Q 703.87758,646.43507 701.80239,644.42091 699.78823,642.40675 692.89125,641.91847 L 692.89125,639.59913 727.62026,639.59913 727.62026,641.91847 Q 720.72329,642.40675 718.64809,644.42091 716.57289,646.43507 716.57289,653.14894 L 716.57289,677.50196 754.47573,677.50196 754.47573,653.14894 Q 754.47573,646.43507 752.46157,644.42091 750.44741,642.40675 743.4894,641.91847 L 743.4894,639.59913 778.2184,639.59913 778.2184,641.91847 Q 771.32143,642.40675 769.24623,644.42091 767.23207,646.43507 767.23207,653.14894 L 767.23207,708.75196 Q 767.23207,715.5879 769.24623,717.54103 771.32143,719.43312 778.2184,720.04347 L 778.2184,722.30177 743.4894,722.30177 743.4894,720.04347 Q 750.87465,719.31105 752.64467,717.35792 754.47573,715.4048 754.47573,707.28712 L 754.47573,682.99513 716.57289,682.99513 716.57289,708.75196 Q 716.57289,715.5879 718.64809,717.54103 720.72329,719.49415 727.62026,720.04347 L 727.62026,722.30177 692.89125,722.30177 692.89125,720.04347 Z" />
    <path
       inkscape:connector-curvature="0"
       id="path4299"
       style="font-style:normal;font-variant:normal;font-weight:normal;font-stretch:normal;font-size:125px;line-height:125%;font-family:Times;-inkscape-font-specification:'Times, Normal';text-align:start;letter-spacing:0px;word-spacing:0px;writing-mode:lr-tb;text-anchor:start;fill:#000000;fill-opacity:1;stroke:none;stroke-width:1px;stroke-linecap:butt;stroke-linejoin:miter;stroke-opacity:1"
       d="M 794.54031,720.03543 Q 802.29178,719.24197 804.48904,716.55642 806.68631,713.80984 806.68631,703.92215 L 806.68631,653.1409 Q 806.68631,646.36599 804.55008,644.35183 802.41385,642.27664 794.84549,641.91043 L 794.84549,639.59109 819.56473,639.59109 848.49539,702.64041 876.14432,639.59109 901.04666,639.59109 901.04666,641.91043 Q 894.08865,642.39871 892.07449,644.4739 890.06033,646.48807 890.06033,653.1409 L 890.06033,708.74392 Q 890.06033,715.57986 892.07449,717.53299 894.08865,719.42508 901.04666,720.03543 L 901.04666,722.29373 866.01248,722.29373 866.01248,720.03543 Q 873.58084,719.42508 875.4119,717.34988 877.30399,715.21365 877.30399,707.27908 L 877.30399,651.12674 845.32156,722.29373 843.61258,722.29373 812.17947,654.05642 812.17947,703.92215 Q 812.17947,714.17605 815.1702,717.28885 817.12332,719.30301 823.89822,720.03543 L 823.89822,722.29373 794.54031,722.29373 794.54031,720.03543 Z" />
    <path
       inkscape:connector-curvature="0"
       id="path4301"
       style="font-style:normal;font-variant:normal;font-weight:normal;font-stretch:normal;font-size:125px;line-height:125%;font-family:Times;-inkscape-font-specification:'Times, Normal';text-align:start;letter-spacing:0px;word-spacing:0px;writing-mode:lr-tb;text-anchor:start;fill:#000000;fill-opacity:1;stroke:none;stroke-width:1px;stroke-linecap:butt;stroke-linejoin:miter;stroke-opacity:1"
       d="M 919.13939,697.80501 Q 922.31322,706.22787 926.58568,711.23275 934.03197,719.96078 945.07933,719.96078 951.06078,719.96078 955.39427,716.1766 959.7888,712.39242 959.7888,705.61751 959.7888,699.514 955.39427,694.9974 952.52562,692.12875 943.30931,686.39144 L 932.62816,679.73861 Q 927.80638,676.68685 924.93773,673.57406 919.62767,667.65365 919.62767,660.51253 919.62767,651.05209 925.91429,644.76546 932.20091,638.47884 942.57689,638.47884 946.84935,638.47884 952.8308,640.61507 958.87328,642.69027 959.72777,642.69027 962.0471,642.69027 962.9016,641.59164 963.81712,640.493 964.30541,638.47884 L 966.86888,638.47884 969.61546,665.09017 966.62474,665.09017 Q 963.57298,653.06625 956.79808,648.3055 950.08421,643.54476 943.49242,643.54476 938.36546,643.54476 934.52025,646.59652 930.73607,649.58724 930.73607,654.95834 930.73607,659.78011 933.66576,663.19808 936.59544,666.67709 942.76,670.46126 L 953.74632,677.23617 Q 964.06126,683.58382 968.27269,688.89388 972.42308,694.26498 972.42308,701.58919 972.42308,711.41585 964.97679,718.00765 957.59154,724.59945 946.05589,724.59945 940.25755,724.59945 933.9099,722.40218 927.62328,720.20492 926.70775,720.20492 924.51048,720.20492 923.71703,721.54769 922.9846,722.89046 922.74046,724.41634 L 919.99388,724.41634 916.27074,697.80501 919.13939,697.80501 Z M 945.87279,638.47884 945.87279,638.47884 Z" />
    <path
       style="font-style:normal;font-variant:normal;font-weight:bold;font-stretch:normal;font-size:medium;line-height:125%;font-family:Helvetica;-inkscape-font-specification:'Helvetica, Bold';text-align:start;letter-spacing:0px;word-spacing:0px;writing-mode:lr-tb;text-anchor:start;opacity:1;fill:#7aa0c7;fill-opacity:1;stroke:none;stroke-width:1px;stroke-linecap:butt;stroke-linejoin:miter;stroke-opacity:1"
       sodipodi:nodetypes="zzccczccczz"
       inkscape:connector-curvature="0"
       id="path4214"
       d="M 302.15437,313.87729 C 303.17568,165.8874 404.55425,68.93169 529.06887,67.567276 653.58347,66.202864 751.13452,132.02521 760.13274,250.65135 L 618.7122,252.07993 C 618.33057,207.84109 578.53579,181.69208 546.07227,181.60878 468.10514,182.53118 452.34138,251.25752 450.99357,311.83571 449.64575,372.4139 486.79031,436.39742 541.41778,436.86223 590.29209,438.29691 617.86859,407.47257 619.42648,366.39428 L 760.52476,366.39428 C 762.75267,459.84586 678.33327,550.73093 542.08558,551.10735 405.8379,551.48377 301.13306,461.86718 302.15437,313.87729 Z" />
  </g>
</svg>
